<svg width="930" height="300" xmlns="http://www.w3.org/2000/svg">
    <style>
        @import url('https://fonts.googleapis.com/css?family=Fira+Sans:500');
        .label {
            text-anchor: end;
            font-family: 'Fira Sans', sans-serif;
            font-size: 16px;
            font-weight: 500;
        }
    </style>
    <defs>
        <rect id="skill-unselected" fill="#E6E6E6" stroke="#D4D4D4" width="50" height="20"/>
        <g id="skill-selected" fill-rule="evenodd" fill="none">
            <rect x="4" y="4" width="50" height="20" fill="aqua"/>
            <rect x="0" y="0" width="50" height="20" stroke="#000"/>
        </g>
        <g id="none">
            <use href="#skill-unselected"/>
            <use href="#skill-unselected" y="30"/>
            <use href="#skill-unselected" y="60"/>
        </g>
        <g id="low">
            <use href="#skill-unselected"/>
            <use href="#skill-unselected" y="30"/>
            <use href="#skill-selected" y="60"/>
        </g>
        <g id="medium">
            <use href="#skill-unselected"/>
            <use href="#skill-selected" y="30"/>
            <use href="#skill-selected" y="60"/>
        </g>
        <g id="high">
            <use href="#skill-selected"/>
            <use href="#skill-selected" y="30"/>
            <use href="#skill-selected" y="60"/>
        </g>
    </defs>
    <g transform="translate(0,60)">
        <text x="25" y="100" transform="rotate(-90 25 100)" class="label">User research</text>
        <use href="#high"/>   
    </g>
    <g transform="translate(80,60)">
        <text x="25" y="100" transform="rotate(-90 25 100)" class="label">User modeling</text>
        <use href="#medium"/>   
    </g>
    <g transform="translate(160,60)">
        <text x="25" y="100" transform="rotate(-90 25 100)" class="label">User testing</text>
        <use href="#medium"/>   
    </g>
    <g transform="translate(240,60)">
        <text x="25" y="100" transform="rotate(-90 25 100)" class="label">User analytics</text>
        <use href="#low"/>   
    </g>
    <g transform="translate(320,60)">
        <text x="25" y="100" transform="rotate(-90 25 100)" class="label">Test analysis</text>
        <use href="#medium"/>   
    </g>
    <g transform="translate(400,60)">
        <text x="25" y="100" transform="rotate(-90 25 100)" class="label">Workshop design</text>
        <use href="#high"/>   
    </g>
    <g transform="translate(480,60)">
        <text x="25" y="100" transform="rotate(-90 25 100)" class="label">Wireframing</text>
        <use href="#high"/>   
    </g>
    <g transform="translate(560,60)">
        <text x="25" y="100" transform="rotate(-90 25 100)" class="label">Prototyping</text>
        <use href="#low"/>   
    </g>
    <g transform="translate(640,60)">
        <text x="25" y="100" transform="rotate(-90 25 100)" class="label">UI design</text>
        <use href="#low"/>   
    </g>
    <g transform="translate(720,60)">
        <text x="25" y="100" transform="rotate(-90 25 100)" class="label">Motion design</text>
        <use href="#none"/>   
    </g>
    <g transform="translate(800,60)">
        <text x="25" y="100" transform="rotate(-90 25 100)" class="label">Graphic design</text>
        <use href="#none"/>   
    </g>
    <g transform="translate(880,60)">
        <text x="25" y="100" transform="rotate(-90 25 100)" class="label">HTML/CSS</text>
        <use href="#none"/>   
    </g>
</svg>