<?xml version="1.0" encoding="UTF-8"?>
<svg width="430px" height="426px" viewBox="0 0 430 426" version="1.1" xmlns="http://www.w3.org/2000/svg" xmlns:xlink="http://www.w3.org/1999/xlink">
    <!-- Generator: Sketch 52.4 (67378) - http://www.bohemiancoding.com/sketch -->
    <title>Group</title>
    <desc>Created with Sketch.</desc>
    <g id="Design-system" stroke="none" stroke-width="1" fill="none" fill-rule="evenodd">
        <g id="max" transform="translate(-951.000000, -1845.000000)">
            <g id="Group" transform="translate(953.000000, 1846.000000)">
                <text id="UI-Ideation" transform="translate(34.650680, 160.315807) rotate(-45.000000) translate(-34.650680, -160.315807) " font-family="FiraSans-Bold, Fira Sans" font-size="14" font-weight="bold" line-spacing="20" fill="#FFFFFF">
                    <tspan x="-0.349320462" y="165.315807">UI Ideation</tspan>
                </text>
                <text id="Feedback" transform="translate(258.052777, 30.105555) rotate(45.000000) translate(-258.052777, -30.105555) " font-family="FiraSans-Regular, Fira Sans" font-size="14" font-weight="normal" line-spacing="20" fill="#FFFFFF">
                    <tspan x="227.552777" y="35.1055552">Feedback</tspan>
                </text>
                <text id="Sign-off" transform="translate(172.470007, 392.886206) rotate(45.000000) translate(-172.470007, -392.886206) " font-family="FiraSans-Regular, Fira Sans" font-size="14" font-weight="normal" line-spacing="20" fill="#FFFFFF">
                    <tspan x="147.970007" y="397.886206">Sign off</tspan>
                </text>
                <text id="UI-artwork" transform="translate(366.486472, 231.534471) rotate(-45.000000) translate(-366.486472, -231.534471) " font-family="FiraSans-Bold, Fira Sans" font-size="14" font-weight="bold" line-spacing="20" fill="#FFFFFF">
                    <tspan x="332.486472" y="236.534471">UI artwork</tspan>
                </text>
                <path d="M213,12.4142136 L14.4142136,211 L213,409.585786 L411.585786,211 L213,12.4142136 Z" id="Rectangle" stroke="#FFFFFF" stroke-width="2" transform="translate(213.000000, 211.000000) rotate(-90.000000) translate(-213.000000, -211.000000) "></path>
                <polygon id="Rectangle" stroke="#0D2F4C" stroke-width="2" fill="#FFFFFF" transform="translate(13.500000, 211.500000) rotate(-90.000000) translate(-13.500000, -211.500000) " points="13.5 198 27 211.5 13.5 225 0 211.5"></polygon>
                <polygon id="Rectangle" stroke="#0D2F4C" stroke-width="2" fill="#FFFFFF" transform="translate(412.500000, 210.500000) rotate(-90.000000) translate(-412.500000, -210.500000) " points="412.5 197 426 210.5 412.5 224 399 210.5"></polygon>
                <polygon id="Rectangle" stroke="#0D2F4C" stroke-width="2" fill="#FFFFFF" transform="translate(213.500000, 409.500000) rotate(-90.000000) translate(-213.500000, -409.500000) " points="213.5 396 227 409.5 213.5 423 200 409.5"></polygon>
                <polygon id="Rectangle" stroke="#0D2F4C" stroke-width="2" fill="#FFFFFF" transform="translate(215.000000, 12.500000) rotate(-90.000000) translate(-215.000000, -12.500000) " points="215 0.5 227 12.5 215 24.5 203 12.5"></polygon>
            </g>
        </g>
    </g>
</svg>