<?xml version="1.0" encoding="UTF-8"?>
<svg width="1145px" height="246px" viewBox="0 0 1145 246" version="1.1" xmlns="http://www.w3.org/2000/svg" xmlns:xlink="http://www.w3.org/1999/xlink">
    <!-- Generator: Sketch 52.4 (67378) - http://www.bohemiancoding.com/sketch -->
    <title>Group 5</title>
    <desc>Created with Sketch.</desc>
    <defs>
        <rect id="path-1" x="0" y="182" width="511" height="32"></rect>
        <mask id="mask-2" maskContentUnits="userSpaceOnUse" maskUnits="objectBoundingBox" x="0" y="0" width="511" height="32" fill="white">
            <use xlink:href="#path-1"></use>
        </mask>
        <rect id="path-3" x="468" y="220" width="626" height="32"></rect>
        <mask id="mask-4" maskContentUnits="userSpaceOnUse" maskUnits="objectBoundingBox" x="0" y="0" width="626" height="32" fill="white">
            <use xlink:href="#path-3"></use>
        </mask>
    </defs>
    <g id="Design-team" stroke="none" stroke-width="1" fill="none" fill-rule="evenodd">
        <g id="max" transform="translate(-161.000000, -1649.000000)">
            <g id="Group-5" transform="translate(161.000000, 1643.000000)">
                <rect id="Rectangle" fill="#C7C7C7" x="0" y="138" width="1097" height="1"></rect>
                <text id="User-research" transform="translate(58.537320, 94.093669) rotate(-45.000000) translate(-58.537320, -94.093669) " font-family="FiraSans-Bold, Fira Sans" font-size="14" font-weight="bold" line-spacing="20" fill="#164B7A">
                    <tspan x="14.0373196" y="99.0936688">User research</tspan>
                </text>
                <path d="M13.5,126.414214 L1.41421356,138.5 L13.5,150.585786 L25.5857864,138.5 L13.5,126.414214 Z" id="Rectangle" stroke="#164B7A" stroke-width="2" fill="#FFFFFF" transform="translate(13.500000, 138.500000) rotate(-90.000000) translate(-13.500000, -138.500000) "></path>
                <text id="User-modeling" transform="translate(154.951533, 92.679455) rotate(-45.000000) translate(-154.951533, -92.679455) " font-family="FiraSans-Bold, Fira Sans" font-size="14" font-weight="bold" line-spacing="20" fill="#164B7A">
                    <tspan x="108.451533" y="97.6794552">User modeling</tspan>
                </text>
                <path d="M110.5,126.414214 L98.4142136,138.5 L110.5,150.585786 L122.585786,138.5 L110.5,126.414214 Z" id="Rectangle" stroke="#164B7A" stroke-width="2" fill="#FFFFFF" transform="translate(110.500000, 138.500000) rotate(-90.000000) translate(-110.500000, -138.500000) "></path>
                <text id="User-testing" transform="translate(248.648232, 97.982756) rotate(-45.000000) translate(-248.648232, -97.982756) " font-family="FiraSans-Bold, Fira Sans" font-size="14" font-weight="bold" line-spacing="20" fill="#164B7A">
                    <tspan x="209.648232" y="102.982756">User testing</tspan>
                </text>
                <path d="M208.5,126.414214 L196.414214,138.5 L208.5,150.585786 L220.585786,138.5 L208.5,126.414214 Z" id="Rectangle" stroke="#164B7A" stroke-width="2" fill="#FFFFFF" transform="translate(208.500000, 138.500000) rotate(-90.000000) translate(-208.500000, -138.500000) "></path>
                <text id="Workshop-design" transform="translate(551.315494, 86.315494) rotate(-45.000000) translate(-551.315494, -86.315494) " font-family="FiraSans-Bold, Fira Sans" font-size="14" font-weight="bold" line-spacing="20" fill="#164B7A">
                    <tspan x="495.815494" y="91.3154942">Workshop design</tspan>
                </text>
                <path d="M305.5,126.414214 L293.414214,138.5 L305.5,150.585786 L317.585786,138.5 L305.5,126.414214 Z" id="Rectangle" stroke="#164B7A" stroke-width="2" fill="#FFFFFF" transform="translate(305.500000, 138.500000) rotate(-90.000000) translate(-305.500000, -138.500000) "></path>
                <text id="Test-analysis/presen" transform="translate(476.114484, 66.516504) rotate(-45.000000) translate(-476.114484, -66.516504) " font-family="FiraSans-Bold, Fira Sans" font-size="14" font-weight="bold" line-spacing="20" fill="#164B7A">
                    <tspan x="392.614484" y="71.5165043">Test analysis/presentaion</tspan>
                </text>
                <text id="Data-analytics" transform="translate(351.244426, 93.386562) rotate(-45.000000) translate(-351.244426, -93.386562) " font-family="FiraSans-Bold, Fira Sans" font-size="14" font-weight="bold" line-spacing="20" fill="#164B7A">
                    <tspan x="305.744426" y="98.386562">Data analytics</tspan>
                </text>
                <path d="M402.5,126.414214 L390.414214,138.5 L402.5,150.585786 L414.585786,138.5 L402.5,126.414214 Z" id="Rectangle" stroke="#164B7A" stroke-width="2" fill="#FFFFFF" transform="translate(402.500000, 138.500000) rotate(-90.000000) translate(-402.500000, -138.500000) "></path>
                <path d="M499.5,126.414214 L487.414214,138.5 L499.5,150.585786 L511.585786,138.5 L499.5,126.414214 Z" id="Rectangle" stroke="#164B7A" stroke-width="2" fill="#FFFFFF" transform="translate(499.500000, 138.500000) rotate(-90.000000) translate(-499.500000, -138.500000) "></path>
                <text id="Wireframing" transform="translate(637.001786, 97.629203) rotate(-45.000000) translate(-637.001786, -97.629203) " font-family="FiraSans-Bold, Fira Sans" font-size="14" font-weight="bold" line-spacing="20" fill="#164B7A">
                    <tspan x="597.501786" y="102.629203">Wireframing</tspan>
                </text>
                <path d="M597.5,126.414214 L585.414214,138.5 L597.5,150.585786 L609.585786,138.5 L597.5,126.414214 Z" id="Rectangle" stroke="#164B7A" stroke-width="2" fill="#FFFFFF" transform="translate(597.500000, 138.500000) rotate(-90.000000) translate(-597.500000, -138.500000) "></path>
                <text id="Prototyping" transform="translate(734.294679, 98.336309) rotate(-45.000000) translate(-734.294679, -98.336309) " font-family="FiraSans-Bold, Fira Sans" font-size="14" font-weight="bold" line-spacing="20" fill="#164B7A">
                    <tspan x="695.794679" y="103.336309">Prototyping</tspan>
                </text>
                <path d="M694.5,126.414214 L682.414214,138.5 L694.5,150.585786 L706.585786,138.5 L694.5,126.414214 Z" id="Rectangle" stroke="#164B7A" stroke-width="2" fill="#FFFFFF" transform="translate(694.500000, 138.500000) rotate(-90.000000) translate(-694.500000, -138.500000) "></path>
                <text id="UI-design" transform="translate(825.284271, 104.346717) rotate(-45.000000) translate(-825.284271, -104.346717) " font-family="FiraSans-Bold, Fira Sans" font-size="14" font-weight="bold" line-spacing="20" fill="#164B7A">
                    <tspan x="795.284271" y="109.346717">UI design</tspan>
                </text>
                <path d="M791.5,126.414214 L779.414214,138.5 L791.5,150.585786 L803.585786,138.5 L791.5,126.414214 Z" id="Rectangle" stroke="#164B7A" stroke-width="2" fill="#FFFFFF" transform="translate(791.500000, 138.500000) rotate(-90.000000) translate(-791.500000, -138.500000) "></path>
                <text id="Motion-design" transform="translate(936.244426, 93.386562) rotate(-45.000000) translate(-936.244426, -93.386562) " font-family="FiraSans-Bold, Fira Sans" font-size="14" font-weight="bold" line-spacing="20" fill="#164B7A">
                    <tspan x="890.744426" y="98.386562">Motion design</tspan>
                </text>
                <path d="M888.5,126.414214 L876.414214,138.5 L888.5,150.585786 L900.585786,138.5 L888.5,126.414214 Z" id="Rectangle" stroke="#164B7A" stroke-width="2" fill="#FFFFFF" transform="translate(888.500000, 138.500000) rotate(-90.000000) translate(-888.500000, -138.500000) "></path>
                <text id="Graphic-design" transform="translate(1033.658640, 91.972348) rotate(-45.000000) translate(-1033.658640, -91.972348) " font-family="FiraSans-Bold, Fira Sans" font-size="14" font-weight="bold" line-spacing="20" fill="#164B7A">
                    <tspan x="986.15864" y="96.9723484">Graphic design</tspan>
                </text>
                <path d="M986.5,126.414214 L974.414214,138.5 L986.5,150.585786 L998.585786,138.5 L986.5,126.414214 Z" id="Rectangle" stroke="#164B7A" stroke-width="2" fill="#FFFFFF" transform="translate(986.500000, 138.500000) rotate(-90.000000) translate(-986.500000, -138.500000) "></path>
                <text id="HTML/CSS" transform="translate(1120.405592, 102.225397) rotate(-45.000000) translate(-1120.405592, -102.225397) " font-family="FiraSans-Bold, Fira Sans" font-size="14" font-weight="bold" line-spacing="20" fill="#164B7A">
                    <tspan x="1087.40559" y="107.225397">HTML/CSS</tspan>
                </text>
                <path d="M1083.5,126.414214 L1071.41421,138.5 L1083.5,150.585786 L1095.58579,138.5 L1083.5,126.414214 Z" id="Rectangle" stroke="#164B7A" stroke-width="2" fill="#FFFFFF" transform="translate(1083.500000, 138.500000) rotate(-90.000000) translate(-1083.500000, -138.500000) "></path>
                <use id="Rectangle" stroke="#969696" mask="url(#mask-2)" stroke-width="2" stroke-dasharray="6" xlink:href="#path-1"></use>
                <text id="UX-Reseracher" font-family="FiraSans-Regular, Fira Sans" font-size="14" font-weight="normal" line-spacing="20" fill="#767676">
                    <tspan x="209" y="202">UX Reseracher</tspan>
                </text>
                <use id="Rectangle" stroke="#969696" mask="url(#mask-4)" stroke-width="2" stroke-dasharray="6" xlink:href="#path-3"></use>
                <text id="UI-Designer" font-family="FiraSans-Regular, Fira Sans" font-size="14" font-weight="normal" line-spacing="20" fill="#767676">
                    <tspan x="745" y="241">UI Designer</tspan>
                </text>
            </g>
        </g>
    </g>
</svg>