<?xml version="1.0" encoding="UTF-8"?>
<svg width="872px" height="413px" viewBox="0 0 872 413" version="1.1" xmlns="http://www.w3.org/2000/svg" xmlns:xlink="http://www.w3.org/1999/xlink">
    <!-- Generator: Sketch 52.4 (67378) - http://www.bohemiancoding.com/sketch -->
    <title>team-process</title>
    <desc>Created with Sketch.</desc>
    <g id="Design-team" stroke="none" stroke-width="1" fill="none" fill-rule="evenodd">
        <g id="max" transform="translate(-284.000000, -5464.000000)">
            <g id="team-process" transform="translate(284.000000, 5464.000000)">
                <text id="What?" font-family="CaslonGraphiqueEF" font-size="40" font-weight="normal" line-spacing="40" fill="#000000">
                    <tspan x="143" y="235">What?</tspan>
                </text>
                <text id="Generative-research" transform="translate(57.093669, 140.093669) rotate(-45.000000) translate(-57.093669, -140.093669) " font-family="FiraSans-Bold, Fira Sans" font-size="14" font-weight="bold" line-spacing="20" fill="#164B7A">
                    <tspan x="-9.40633124" y="145.093669">Generative research </tspan>
                </text>
                <text id="Idea-validation" transform="translate(271.012193, 45.012193) rotate(45.000000) translate(-271.012193, -45.012193) " font-family="FiraSans-Bold, Fira Sans" font-size="14" font-weight="bold" line-spacing="20" fill="#164B7A">
                    <tspan x="223.012193" y="50.0121933">Idea validation</tspan>
                </text>
                <path d="M213,13.7071068 L13.7071068,213 L213,412.292893 L412.292893,213 L213,13.7071068 Z" id="Rectangle" stroke="#C7C7C7" transform="translate(213.000000, 213.000000) rotate(-90.000000) translate(-213.000000, -213.000000) "></path>
                <path d="M659,12.7071068 L459.707107,212 L659,411.292893 L858.292893,212 L659,12.7071068 Z" id="Rectangle" stroke="#C7C7C7" transform="translate(659.000000, 212.000000) rotate(-90.000000) translate(-659.000000, -212.000000) "></path>
                <text id="User-stories" transform="translate(382.294679, 263.294679) rotate(-45.000000) translate(-382.294679, -263.294679) " font-family="FiraSans-Bold, Fira Sans" font-size="14" font-weight="bold" line-spacing="20" fill="#164B7A">
                    <tspan x="343.794679" y="268.294679">User stories</tspan>
                </text>
                <path d="M13.5,201.414214 L1.41421356,213.5 L13.5,225.585786 L25.5857864,213.5 L13.5,201.414214 Z" id="Rectangle" stroke="#164B7A" stroke-width="2" fill="#FFFFFF" transform="translate(13.500000, 213.500000) rotate(-90.000000) translate(-13.500000, -213.500000) "></path>
                <path d="M412.5,200.414214 L400.414214,212.5 L412.5,224.585786 L424.585786,212.5 L412.5,200.414214 Z" id="Rectangle" stroke="#164B7A" stroke-width="2" fill="#FFFFFF" transform="translate(412.500000, 212.500000) rotate(-90.000000) translate(-412.500000, -212.500000) "></path>
                <path d="M213.5,2.41421356 L201.414214,14.5 L213.5,26.5857864 L225.585786,14.5 L213.5,2.41421356 Z" id="Rectangle" stroke="#164B7A" stroke-width="2" fill="#FFFFFF" transform="translate(213.500000, 14.500000) rotate(-90.000000) translate(-213.500000, -14.500000) "></path>
                <path d="M201.488811,24.0900887 L204.483607,21.0970231 L208.196122,24.8073929 L201.488811,31.5108282 L194.7815,24.8073929 L198.494015,21.0970231 L201.488811,24.0900887 Z" id="Combined-Shape" stroke="#000000" fill="#FFFFFF" transform="translate(201.488811, 26.303926) rotate(-140.000000) translate(-201.488811, -26.303926) "></path>
                <path d="M400.424621,199.210784 L403.419417,196.217719 L407.131932,199.928088 L400.424621,206.631524 L393.71731,199.928088 L397.429825,196.217719 L400.424621,199.210784 Z" id="Combined-Shape" stroke="#000000" fill="#FFFFFF" transform="translate(400.424621, 201.424621) rotate(-45.000000) translate(-400.424621, -201.424621) "></path>
                <text id="How?" font-family="CaslonGraphiqueEF" font-size="40" font-weight="normal" line-spacing="40" fill="#000000">
                    <tspan x="600" y="232">How?</tspan>
                </text>
                <text id="Solution-ideation" transform="translate(495.315494, 147.315494) rotate(-45.000000) translate(-495.315494, -147.315494) " font-family="FiraSans-Bold, Fira Sans" font-size="14" font-weight="bold" line-spacing="20" fill="#164B7A">
                    <tspan x="439.815494" y="152.315494">Solution ideation</tspan>
                </text>
                <text id="Solution-validation" transform="translate(725.204581, 53.204581) rotate(45.000000) translate(-725.204581, -53.204581) " font-family="FiraSans-Bold, Fira Sans" font-size="14" font-weight="bold" line-spacing="20" fill="#164B7A">
                    <tspan x="664.204581" y="58.2045815">Solution validation</tspan>
                </text>
                <text id="Build-ready-designs" transform="translate(810.325902, 280.325902) rotate(-45.000000) translate(-810.325902, -280.325902) " font-family="FiraSans-Bold, Fira Sans" font-size="14" font-weight="bold" line-spacing="20" fill="#164B7A">
                    <tspan x="746.325902" y="285.325902">Build-ready designs</tspan>
                </text>
                <path d="M459.5,200.414214 L447.414214,212.5 L459.5,224.585786 L471.585786,212.5 L459.5,200.414214 Z" id="Rectangle" stroke="#164B7A" stroke-width="2" fill="#FFFFFF" transform="translate(459.500000, 212.500000) rotate(-90.000000) translate(-459.500000, -212.500000) "></path>
                <path d="M858.5,199.414214 L846.414214,211.5 L858.5,223.585786 L870.585786,211.5 L858.5,199.414214 Z" id="Rectangle" stroke="#164B7A" stroke-width="2" fill="#FFFFFF" transform="translate(858.500000, 211.500000) rotate(-90.000000) translate(-858.500000, -211.500000) "></path>
                <path d="M659.5,1.41421356 L647.414214,13.5 L659.5,25.5857864 L671.585786,13.5 L659.5,1.41421356 Z" id="Rectangle" stroke="#164B7A" stroke-width="2" fill="#FFFFFF" transform="translate(659.500000, 13.500000) rotate(-90.000000) translate(-659.500000, -13.500000) "></path>
                <path d="M647.488811,22.0900887 L650.483607,19.0970231 L654.196122,22.8073929 L647.488811,29.5108282 L640.7815,22.8073929 L644.494015,19.0970231 L647.488811,22.0900887 Z" id="Combined-Shape" stroke="#000000" fill="#FFFFFF" transform="translate(647.488811, 24.303926) rotate(-140.000000) translate(-647.488811, -24.303926) "></path>
                <path d="M846.424621,198.210784 L849.419417,195.217719 L853.131932,198.928088 L846.424621,205.631524 L839.71731,198.928088 L843.429825,195.217719 L846.424621,198.210784 Z" id="Combined-Shape" stroke="#000000" fill="#FFFFFF" transform="translate(846.424621, 200.424621) rotate(-45.000000) translate(-846.424621, -200.424621) "></path>
                <path d="M425,213 L448,212.5" id="Line" stroke="#000000" stroke-linecap="square"></path>
            </g>
        </g>
    </g>
</svg>